<svg width="24" height="23" viewBox="0 0 24 23" fill="none" xmlns="http://www.w3.org/2000/svg">
<path fill-rule="evenodd" clip-rule="evenodd" d="M6.96915 4.02027C6.88574 4.31611 6.8317 5.04297 7.64311 6.33897C7.76804 6.53851 7.78443 6.78366 7.68711 6.99685C6.84549 8.8404 6.75148 10.0482 6.94793 10.8307C7.13652 11.5818 7.62036 12.0482 8.23221 12.3658C8.86575 12.6947 9.60462 12.8448 10.214 12.9397C10.2981 12.9528 10.3869 12.9658 10.4751 12.9787C10.6685 13.007 10.8588 13.0348 10.9894 13.0624C11.0441 13.0739 11.1087 13.0893 11.1737 13.1104C11.2291 13.1284 11.3352 13.1661 11.4412 13.2402C11.5447 13.3127 11.7626 13.5045 11.7723 13.835C11.7813 14.1409 11.6014 14.3364 11.5303 14.4045C11.4482 14.4833 11.3738 14.5516 11.306 14.6139C10.9859 14.9081 10.8115 15.0684 10.6454 15.5604C10.4164 16.2388 10.25 17.4906 10.25 20.1254C10.25 20.5224 9.91421 20.8442 9.5 20.8442C9.08579 20.8442 8.75 20.5224 8.75 20.1254C8.75 19.0975 8.77422 18.249 8.82209 17.542C8.7386 17.5438 8.64969 17.5425 8.5571 17.5359C8.04425 17.4995 7.49954 17.3081 6.96967 16.8003C6.64988 16.4938 6.45458 16.1898 6.30842 15.9427C6.27356 15.8837 6.24335 15.8318 6.21638 15.7854C6.1195 15.6189 6.0645 15.5244 5.98633 15.4345C5.88426 15.3171 5.6615 15.0942 4.5 15.0942C4.08579 15.0942 3.75 14.7724 3.75 14.3754C3.75 13.9785 4.08579 13.6567 4.5 13.6567C5.8385 13.6567 6.61574 13.9129 7.13867 14.5142C7.31624 14.7184 7.45481 14.9592 7.55714 15.1369C7.57731 15.172 7.59608 15.2046 7.61345 15.2339C7.73292 15.436 7.85012 15.6111 8.03033 15.7838C8.30046 16.0427 8.50575 16.0909 8.6679 16.1024C8.7611 16.109 8.85903 16.104 8.98303 16.0921C9.04809 15.7087 9.12657 15.3895 9.21821 15.118C9.33188 14.7813 9.46833 14.516 9.61378 14.2984C9.00578 14.1884 8.23373 14.0015 7.51779 13.6298C6.62963 13.1688 5.80097 12.4073 5.48955 11.1669C5.20327 10.0267 5.38133 8.58536 6.16457 6.75585C5.10878 4.88857 5.30863 3.47986 5.96966 2.84637C6.07436 2.74603 6.20771 2.67763 6.3529 2.64981C6.86967 2.55076 7.66888 2.52363 8.47266 2.7485C9.1139 2.92789 9.78014 3.27603 10.2862 3.88901C11.0991 3.59907 11.6792 3.59416 12 3.59416C12.3207 3.59416 12.9009 3.59907 13.7138 3.88901C14.2199 3.27603 14.8861 2.92789 15.5273 2.7485C16.3311 2.52363 17.1303 2.55076 17.6471 2.64981C17.7923 2.67763 17.9256 2.74603 18.0303 2.84637C18.6914 3.47986 18.8912 4.88857 17.8354 6.75585C18.6187 8.58536 18.7967 10.0267 18.5104 11.1669C18.199 12.4073 17.3704 13.1688 16.4822 13.6298C15.7663 14.0015 14.9942 14.1884 14.3862 14.2984C14.5317 14.516 14.6681 14.7813 14.7818 15.118C15.0907 16.0332 15.25 17.4894 15.25 20.1254C15.25 20.5224 14.9142 20.8442 14.5 20.8442C14.0858 20.8442 13.75 20.5224 13.75 20.1254C13.75 17.4906 13.5836 16.2388 13.3546 15.5604C13.1885 15.0684 13.0141 14.9081 12.694 14.6139C12.6262 14.5516 12.5518 14.4833 12.4697 14.4045C12.3986 14.3364 12.2187 14.1409 12.2277 13.835C12.2374 13.5045 12.4553 13.3127 12.5588 13.2402C12.6648 13.1661 12.7709 13.1284 12.8263 13.1104C12.8913 13.0893 12.9559 13.0739 13.0106 13.0624C13.1412 13.0348 13.3315 13.007 13.5249 12.9787C13.6131 12.9658 13.7019 12.9528 13.786 12.9397C14.3954 12.8448 15.1342 12.6947 15.7678 12.3658C16.3796 12.0482 16.8635 11.5818 17.0521 10.8307C17.2485 10.0482 17.1545 8.8404 16.3129 6.99685C16.2156 6.78366 16.232 6.53851 16.3569 6.33897C17.1683 5.04297 17.1143 4.31611 17.0308 4.02027C16.7234 4.00078 16.3322 4.02082 15.9477 4.1284C15.4274 4.27395 14.9566 4.56585 14.6708 5.11354C14.5819 5.28404 14.4259 5.41369 14.2372 5.47397C14.0485 5.53425 13.8425 5.52022 13.6646 5.43496C12.8221 5.03127 12.2881 5.03152 12.0143 5.03165C12.0094 5.03166 12.0047 5.03166 12 5.03166C11.9953 5.03166 11.9905 5.03166 11.9857 5.03165C11.7119 5.03152 11.1779 5.03127 10.3354 5.43496C10.1575 5.52022 9.95154 5.53425 9.76283 5.47397C9.57413 5.41369 9.41813 5.28404 9.32918 5.11354C9.04343 4.56585 8.57255 4.27395 8.05232 4.1284C7.66775 4.02082 7.27659 4.00078 6.96915 4.02027Z" fill="#363538"/>
</svg>
