<svg width="24" height="23" viewBox="0 0 24 23" fill="none" xmlns="http://www.w3.org/2000/svg">
<path d="M12 9.58301C12.4142 9.58301 12.75 9.9048 12.75 10.3018V12.9372H14C14.4142 12.9372 14.75 13.259 14.75 13.6559C14.75 14.0529 14.4142 14.3747 14 14.3747H12C11.5858 14.3747 11.25 14.0529 11.25 13.6559V10.3018C11.25 9.9048 11.5858 9.58301 12 9.58301Z" fill="#363538"/>
<path fill-rule="evenodd" clip-rule="evenodd" d="M15 2.39551C15.4142 2.39551 15.75 2.7173 15.75 3.11426C15.75 3.51121 15.4142 3.83301 15 3.83301H12.75V5.3042C16.8166 5.66656 20 8.94538 20 12.9372C20 17.1714 16.4183 20.6038 12 20.6038C7.58172 20.6038 4 17.1714 4 12.9372C4 8.94538 7.18343 5.66656 11.25 5.3042V3.83301H9C8.58579 3.83301 8.25 3.51121 8.25 3.11426C8.25 2.7173 8.58579 2.39551 9 2.39551H15ZM12 6.70801C8.41015 6.70801 5.5 9.4969 5.5 12.9372C5.5 16.3774 8.41015 19.1663 12 19.1663C15.5899 19.1663 18.5 16.3774 18.5 12.9372C18.5 9.4969 15.5899 6.70801 12 6.70801Z" fill="#363538"/>
</svg>
